<svg xmlns="http://www.w3.org/2000/svg" xmlns:xlink="http://www.w3.org/1999/xlink" width="1280" zoomAndPan="magnify" viewBox="0 0 960 299.999988" height="400" preserveAspectRatio="xMidYMid meet" version="1.0"><defs><g/><clipPath id="8a2858050f"><path d="M 427 27.410156 L 657.503906 27.410156 L 657.503906 219.289062 L 427 219.289062 Z M 427 27.410156 " clip-rule="nonzero"/></clipPath><clipPath id="ddb4f99f05"><path d="M 481.015625 133.054688 L 481.546875 133.105469 L 482.074219 133.183594 L 482.597656 133.285156 L 483.105469 133.402344 L 483.613281 133.542969 L 484.105469 133.699219 L 484.597656 133.875 L 485.070312 134.070312 L 485.535156 134.28125 L 486 134.507812 L 486.445312 134.757812 L 486.878906 135.019531 L 487.304688 135.296875 L 487.714844 135.59375 L 488.117188 135.90625 L 488.503906 136.226562 L 488.878906 136.566406 L 489.242188 136.921875 L 489.589844 137.285156 L 489.921875 137.664062 L 490.238281 138.054688 L 490.542969 138.464844 L 490.832031 138.875 L 491.109375 139.304688 L 491.363281 139.742188 L 491.601562 140.1875 L 491.824219 140.648438 L 492.027344 141.113281 L 492.214844 141.585938 L 492.386719 142.078125 L 492.535156 142.566406 L 492.667969 143.066406 L 492.777344 143.574219 L 492.867188 144.09375 L 492.9375 144.609375 L 492.992188 145.136719 L 493.019531 145.667969 L 493.03125 146.207031 L 493.015625 146.75 L 493.015625 205.34375 L 493.019531 205.371094 L 493.019531 205.523438 L 493.027344 205.550781 L 493.027344 206.210938 L 493.019531 206.238281 L 493.019531 206.390625 L 493.015625 206.417969 L 493.015625 206.480469 L 492.976562 207.023438 L 492.921875 207.554688 L 492.847656 208.082031 L 492.742188 208.601562 L 492.628906 209.113281 L 492.488281 209.617188 L 492.332031 210.113281 L 492.15625 210.597656 L 491.960938 211.074219 L 491.75 211.542969 L 491.519531 212 L 491.277344 212.449219 L 491.007812 212.882812 L 490.734375 213.308594 L 490.4375 213.71875 L 490.128906 214.117188 L 489.804688 214.507812 L 489.460938 214.882812 L 489.113281 215.242188 L 488.742188 215.589844 L 488.363281 215.921875 L 487.972656 216.242188 L 487.570312 216.546875 L 487.152344 216.832031 L 486.726562 217.105469 L 486.285156 217.359375 L 485.839844 217.597656 L 485.382812 217.820312 L 484.917969 218.027344 L 484.4375 218.214844 L 483.953125 218.382812 L 483.460938 218.535156 L 482.960938 218.664062 L 482.449219 218.773438 L 481.9375 218.863281 L 481.417969 218.9375 L 480.890625 218.988281 L 480.355469 219.015625 L 479.820312 219.027344 L 479.273438 219.011719 L 478.730469 218.980469 L 478.199219 218.917969 L 477.671875 218.84375 L 477.148438 218.746094 L 476.640625 218.625 L 476.132812 218.492188 L 475.640625 218.332031 L 475.15625 218.152344 L 474.675781 217.964844 L 474.210938 217.75 L 473.753906 217.519531 L 473.300781 217.273438 L 472.867188 217.011719 L 472.445312 216.730469 L 472.03125 216.4375 L 471.632812 216.128906 L 471.242188 215.800781 L 470.867188 215.464844 L 470.507812 215.109375 L 470.160156 214.746094 L 469.828125 214.367188 L 469.507812 213.976562 L 469.203125 213.570312 L 468.917969 213.15625 L 468.644531 212.726562 L 468.390625 212.292969 L 468.148438 211.839844 L 467.925781 211.382812 L 467.71875 210.917969 L 467.535156 210.445312 L 467.367188 209.957031 L 467.214844 209.46875 L 467.085938 208.96875 L 466.976562 208.457031 L 466.882812 207.941406 L 466.8125 207.425781 L 466.757812 206.898438 L 466.730469 206.363281 L 466.71875 205.828125 L 466.738281 205.285156 L 466.738281 146.6875 L 466.730469 146.660156 L 466.730469 146.507812 L 466.726562 146.480469 L 466.726562 145.820312 L 466.730469 145.792969 L 466.730469 145.640625 L 466.738281 145.613281 L 466.738281 145.554688 L 466.773438 145.011719 L 466.828125 144.476562 L 466.90625 143.949219 L 467.007812 143.429688 L 467.121094 142.917969 L 467.265625 142.414062 L 467.421875 141.917969 L 467.59375 141.433594 L 467.792969 140.957031 L 468.003906 140.488281 L 468.230469 140.035156 L 468.476562 139.582031 L 468.742188 139.148438 L 469.019531 138.722656 L 469.3125 138.3125 L 469.621094 137.914062 L 469.949219 137.523438 L 470.285156 137.148438 L 470.640625 136.789062 L 471.007812 136.441406 L 471.390625 136.113281 L 471.78125 135.789062 L 472.183594 135.488281 L 472.59375 135.199219 L 473.023438 134.925781 L 473.460938 134.671875 L 473.910156 134.433594 L 474.367188 134.210938 L 474.835938 134.003906 L 475.3125 133.820312 L 475.796875 133.644531 L 476.285156 133.5 L 476.792969 133.367188 L 477.296875 133.253906 L 477.8125 133.160156 L 478.328125 133.089844 L 478.855469 133.042969 L 479.390625 133.007812 L 479.925781 133.003906 L 480.472656 133.015625 Z M 605.566406 133.671875 L 606.097656 133.726562 L 606.621094 133.800781 L 607.136719 133.894531 L 607.644531 134.007812 L 608.144531 134.144531 L 608.640625 134.296875 L 609.125 134.472656 L 609.597656 134.660156 L 610.066406 134.867188 L 610.523438 135.089844 L 610.972656 135.335938 L 611.40625 135.59375 L 611.832031 135.867188 L 612.246094 136.160156 L 612.648438 136.464844 L 613.039062 136.785156 L 613.414062 137.121094 L 613.777344 137.46875 L 614.128906 137.832031 L 614.460938 138.207031 L 614.789062 138.59375 L 615.09375 138.996094 L 615.386719 139.410156 L 615.65625 139.832031 L 615.917969 140.265625 L 616.164062 140.71875 L 616.390625 141.175781 L 616.597656 141.636719 L 616.789062 142.113281 L 616.960938 142.597656 L 617.121094 143.09375 L 617.253906 143.59375 L 617.371094 144.101562 L 617.46875 144.617188 L 617.539062 145.140625 L 617.597656 145.671875 L 617.628906 146.207031 L 617.640625 146.75 L 617.640625 205.285156 L 617.628906 205.828125 L 617.597656 206.359375 L 617.542969 206.890625 L 617.46875 207.414062 L 617.375 207.933594 L 617.261719 208.441406 L 617.125 208.945312 L 616.972656 209.441406 L 616.800781 209.921875 L 616.609375 210.402344 L 616.398438 210.867188 L 616.175781 211.324219 L 615.929688 211.769531 L 615.667969 212.210938 L 615.398438 212.632812 L 615.101562 213.046875 L 614.792969 213.449219 L 614.472656 213.839844 L 614.136719 214.214844 L 613.789062 214.578125 L 613.425781 214.925781 L 613.050781 215.261719 L 612.65625 215.582031 L 612.253906 215.894531 L 611.84375 216.1875 L 611.417969 216.457031 L 610.976562 216.71875 L 610.53125 216.964844 L 610.074219 217.1875 L 609.609375 217.398438 L 609.128906 217.589844 L 608.648438 217.761719 L 608.152344 217.914062 L 607.644531 218.050781 L 607.140625 218.164062 L 606.621094 218.257812 L 606.097656 218.332031 L 605.566406 218.386719 L 605.03125 218.417969 L 604.488281 218.429688 L 603.945312 218.417969 L 603.40625 218.386719 L 602.878906 218.332031 L 602.351562 218.257812 L 601.835938 218.164062 L 601.324219 218.050781 L 600.824219 217.914062 L 600.332031 217.761719 L 599.847656 217.589844 L 599.367188 217.398438 L 598.902344 217.1875 L 598.445312 216.964844 L 597.992188 216.71875 L 597.558594 216.457031 L 597.136719 216.1875 L 596.722656 215.894531 L 596.320312 215.582031 L 595.929688 215.261719 L 595.554688 214.925781 L 595.1875 214.578125 L 594.835938 214.214844 L 594.5 213.839844 L 594.179688 213.449219 L 593.875 213.046875 L 593.582031 212.632812 L 593.304688 212.210938 L 593.046875 211.769531 L 592.804688 211.324219 L 592.574219 210.867188 L 592.367188 210.402344 L 592.179688 209.921875 L 592.003906 209.441406 L 591.851562 208.945312 L 591.714844 208.441406 L 591.601562 207.933594 L 591.507812 207.414062 L 591.433594 206.890625 L 591.378906 206.359375 L 591.347656 205.828125 L 591.335938 205.285156 L 591.335938 146.777344 L 591.347656 146.230469 L 591.378906 145.695312 L 591.433594 145.167969 L 591.507812 144.640625 L 591.601562 144.125 L 591.714844 143.613281 L 591.851562 143.113281 L 592.003906 142.621094 L 592.179688 142.136719 L 592.367188 141.65625 L 592.574219 141.191406 L 592.804688 140.734375 L 593.046875 140.285156 L 593.304688 139.847656 L 593.582031 139.425781 L 593.875 139.011719 L 594.179688 138.609375 L 594.5 138.21875 L 594.835938 137.84375 L 595.1875 137.480469 L 595.554688 137.128906 L 595.929688 136.789062 L 596.320312 136.46875 L 596.722656 136.164062 L 597.136719 135.871094 L 597.558594 135.59375 L 597.992188 135.339844 L 598.445312 135.09375 L 598.902344 134.867188 L 599.367188 134.660156 L 599.847656 134.472656 L 600.332031 134.296875 L 600.824219 134.144531 L 601.324219 134.007812 L 601.835938 133.894531 L 602.351562 133.800781 L 602.878906 133.726562 L 603.40625 133.671875 L 603.945312 133.640625 L 604.488281 133.628906 L 605.03125 133.640625 Z M 463.128906 142.820312 L 463.105469 142.925781 L 463.085938 143.027344 L 463.0625 143.128906 L 463.039062 143.226562 L 463.023438 143.332031 L 463.003906 143.433594 L 462.988281 143.539062 L 462.964844 143.640625 L 462.949219 143.746094 L 462.933594 143.847656 L 462.914062 143.949219 L 462.898438 144.046875 L 462.882812 144.152344 L 462.871094 144.253906 L 462.855469 144.359375 L 462.84375 144.460938 L 462.828125 144.566406 L 462.816406 144.667969 L 462.808594 144.769531 L 462.796875 144.875 L 462.785156 144.984375 L 462.78125 145.085938 L 462.769531 145.1875 L 462.761719 145.292969 L 462.753906 145.394531 L 462.746094 145.5 L 462.742188 145.601562 L 462.738281 145.707031 L 462.730469 145.808594 L 462.726562 145.917969 L 462.71875 146.019531 L 462.71875 146.125 L 462.714844 146.226562 L 462.714844 205.804688 L 462.71875 205.910156 L 462.71875 206.011719 L 462.726562 206.113281 L 462.730469 206.222656 L 462.738281 206.328125 L 462.742188 206.429688 L 462.746094 206.535156 L 462.761719 206.738281 L 462.769531 206.84375 L 462.78125 206.945312 L 462.785156 207.050781 L 462.808594 207.261719 L 462.816406 207.363281 L 462.828125 207.46875 L 462.84375 207.570312 L 462.855469 207.675781 L 462.871094 207.777344 L 462.882812 207.878906 L 462.898438 207.984375 L 462.914062 208.082031 L 462.933594 208.183594 L 462.949219 208.289062 L 462.964844 208.390625 L 462.988281 208.496094 L 463.003906 208.597656 L 463.023438 208.699219 L 463.039062 208.804688 L 463.0625 208.902344 L 463.085938 209.003906 L 463.105469 209.109375 L 463.128906 209.210938 L 463.15625 209.308594 L 463.175781 209.414062 L 452.929688 209.414062 L 451.878906 209.386719 L 450.832031 209.320312 L 449.800781 209.210938 L 448.785156 209.066406 L 447.777344 208.878906 L 446.789062 208.652344 L 445.8125 208.386719 L 444.855469 208.085938 L 443.910156 207.75 L 442.984375 207.375 L 442.078125 206.96875 L 441.1875 206.527344 L 440.316406 206.054688 L 439.46875 205.550781 L 438.644531 205.011719 L 437.839844 204.441406 L 437.0625 203.84375 L 436.300781 203.21875 L 435.570312 202.5625 L 434.867188 201.882812 L 434.1875 201.171875 L 433.535156 200.4375 L 432.910156 199.683594 L 432.3125 198.902344 L 431.746094 198.089844 L 431.214844 197.265625 L 430.707031 196.417969 L 430.234375 195.546875 L 429.792969 194.65625 L 429.390625 193.75 L 429.023438 192.820312 L 428.6875 191.875 L 428.390625 190.914062 L 428.125 189.941406 L 427.902344 188.949219 L 427.71875 187.941406 L 427.578125 186.925781 L 427.472656 185.894531 L 427.410156 184.851562 L 427.386719 183.796875 L 427.386719 168.234375 L 427.410156 167.179688 L 427.472656 166.136719 L 427.578125 165.105469 L 427.71875 164.089844 L 427.902344 163.082031 L 428.125 162.089844 L 428.390625 161.117188 L 428.6875 160.15625 L 429.023438 159.210938 L 429.390625 158.28125 L 429.792969 157.375 L 430.234375 156.484375 L 430.707031 155.613281 L 431.214844 154.765625 L 431.746094 153.941406 L 432.3125 153.132812 L 432.910156 152.347656 L 433.535156 151.59375 L 434.1875 150.859375 L 434.867188 150.148438 L 435.570312 149.46875 L 436.300781 148.8125 L 437.0625 148.1875 L 437.839844 147.589844 L 438.644531 147.019531 L 439.46875 146.480469 L 440.316406 145.976562 L 441.1875 145.503906 L 442.078125 145.0625 L 442.984375 144.65625 L 443.910156 144.28125 L 444.855469 143.945312 L 445.8125 143.644531 L 446.789062 143.378906 L 447.777344 143.152344 L 448.785156 142.96875 L 449.800781 142.820312 L 450.832031 142.710938 L 451.878906 142.648438 L 452.929688 142.621094 L 463.175781 142.621094 L 463.15625 142.722656 Z M 633.523438 142.707031 L 634.554688 142.808594 L 635.578125 142.957031 L 636.582031 143.140625 L 637.578125 143.363281 L 638.554688 143.625 L 639.519531 143.921875 L 640.464844 144.261719 L 641.394531 144.636719 L 642.304688 145.035156 L 643.199219 145.476562 L 644.066406 145.949219 L 644.921875 146.453125 L 645.746094 146.992188 L 646.554688 147.5625 L 647.339844 148.160156 L 648.09375 148.785156 L 648.832031 149.4375 L 649.539062 150.121094 L 650.226562 150.828125 L 650.878906 151.566406 L 651.503906 152.320312 L 652.101562 153.105469 L 652.671875 153.914062 L 653.207031 154.738281 L 653.714844 155.59375 L 654.1875 156.460938 L 654.628906 157.351562 L 655.03125 158.265625 L 655.40625 159.195312 L 655.742188 160.140625 L 656.039062 161.101562 L 656.300781 162.078125 L 656.523438 163.074219 L 656.707031 164.078125 L 656.855469 165.097656 L 656.957031 166.132812 L 657.023438 167.179688 L 657.046875 168.234375 L 657.046875 183.796875 L 657.023438 184.851562 L 656.957031 185.902344 L 656.855469 186.933594 L 656.707031 187.953125 L 656.523438 188.960938 L 656.300781 189.953125 L 656.039062 190.929688 L 655.742188 191.894531 L 655.40625 192.839844 L 655.03125 193.765625 L 654.628906 194.679688 L 654.1875 195.570312 L 653.714844 196.441406 L 653.207031 197.292969 L 652.671875 198.117188 L 652.101562 198.929688 L 651.503906 199.710938 L 650.878906 200.464844 L 650.226562 201.203125 L 649.539062 201.910156 L 648.832031 202.59375 L 648.09375 203.246094 L 647.339844 203.871094 L 646.554688 204.46875 L 645.746094 205.039062 L 644.921875 205.578125 L 644.066406 206.082031 L 643.199219 206.554688 L 642.304688 206.996094 L 641.394531 207.398438 L 640.464844 207.773438 L 639.519531 208.109375 L 638.554688 208.40625 L 637.578125 208.667969 L 636.582031 208.890625 L 635.578125 209.074219 L 634.554688 209.222656 L 633.523438 209.324219 L 632.472656 209.390625 L 631.417969 209.414062 L 621.175781 209.414062 L 621.203125 209.308594 L 621.222656 209.210938 L 621.25 209.109375 L 621.273438 209.003906 L 621.300781 208.90625 L 621.320312 208.804688 L 621.34375 208.699219 L 621.363281 208.597656 L 621.386719 208.496094 L 621.402344 208.398438 L 621.425781 208.292969 L 621.441406 208.191406 L 621.460938 208.085938 L 621.480469 207.984375 L 621.496094 207.878906 L 621.527344 207.675781 L 621.542969 207.570312 L 621.554688 207.46875 L 621.570312 207.363281 L 621.582031 207.261719 L 621.597656 207.15625 L 621.621094 206.953125 L 621.632812 206.847656 L 621.640625 206.738281 L 621.652344 206.636719 L 621.65625 206.535156 L 621.667969 206.429688 L 621.675781 206.328125 L 621.679688 206.222656 L 621.691406 206.121094 L 621.695312 206.011719 L 621.703125 205.910156 L 621.703125 205.804688 L 621.707031 205.703125 L 621.710938 205.597656 L 621.710938 205.492188 L 621.71875 205.386719 L 621.71875 146.644531 L 621.710938 146.542969 L 621.710938 146.433594 L 621.707031 146.328125 L 621.703125 146.226562 L 621.703125 146.125 L 621.695312 146.019531 L 621.691406 145.910156 L 621.679688 145.808594 L 621.675781 145.707031 L 621.667969 145.601562 L 621.65625 145.5 L 621.652344 145.394531 L 621.640625 145.292969 L 621.632812 145.183594 L 621.621094 145.082031 L 621.609375 144.976562 L 621.597656 144.875 L 621.582031 144.769531 L 621.570312 144.667969 L 621.554688 144.566406 L 621.542969 144.460938 L 621.527344 144.359375 L 621.511719 144.253906 L 621.496094 144.152344 L 621.480469 144.046875 L 621.441406 143.84375 L 621.425781 143.738281 L 621.402344 143.636719 L 621.386719 143.539062 L 621.363281 143.433594 L 621.34375 143.332031 L 621.320312 143.226562 L 621.300781 143.125 L 621.273438 143.027344 L 621.25 142.925781 L 621.222656 142.820312 L 621.203125 142.722656 L 621.175781 142.621094 L 631.417969 142.621094 L 632.472656 142.640625 Z M 554.582031 28.355469 L 560.628906 29.15625 L 566.363281 30.253906 L 571.785156 31.632812 L 576.910156 33.273438 L 581.75 35.164062 L 586.308594 37.292969 L 590.589844 39.636719 L 594.613281 42.1875 L 598.378906 44.925781 L 601.894531 47.839844 L 605.171875 50.90625 L 608.222656 54.125 L 611.042969 57.464844 L 613.65625 60.925781 L 616.058594 64.476562 L 618.261719 68.117188 L 620.277344 71.824219 L 622.113281 75.585938 L 623.773438 79.386719 L 625.265625 83.203125 L 626.605469 87.035156 L 627.792969 90.851562 L 628.847656 94.652344 L 629.765625 98.414062 L 630.5625 102.121094 L 631.238281 105.761719 L 631.8125 109.316406 L 632.285156 112.777344 L 632.667969 116.125 L 632.96875 119.339844 L 633.195312 122.417969 L 633.355469 125.332031 L 633.457031 128.078125 L 633.511719 130.628906 L 633.527344 132.976562 L 633.507812 135.113281 L 633.464844 137.007812 L 633.402344 138.652344 L 633.304688 138.648438 L 633.257812 138.644531 L 633.207031 138.636719 L 633.160156 138.632812 L 633.109375 138.632812 L 633.0625 138.625 L 633.011719 138.621094 L 632.964844 138.617188 L 632.914062 138.617188 L 632.863281 138.609375 L 632.816406 138.605469 L 632.765625 138.605469 L 632.71875 138.597656 L 632.667969 138.59375 L 632.621094 138.59375 L 632.570312 138.589844 L 632.523438 138.582031 L 632.46875 138.582031 L 632.417969 138.578125 L 632.371094 138.578125 L 632.320312 138.574219 L 632.273438 138.574219 L 632.222656 138.566406 L 632.175781 138.566406 L 632.125 138.5625 L 632.070312 138.5625 L 632.023438 138.554688 L 631.925781 138.554688 L 631.875 138.550781 L 631.722656 138.550781 L 631.675781 138.546875 L 619.625 138.546875 L 619.578125 138.464844 L 619.53125 138.386719 L 619.484375 138.316406 L 619.433594 138.25 L 619.386719 138.199219 L 619.335938 138.144531 L 619.289062 138.09375 L 619.238281 138.046875 L 619.191406 138.007812 L 619.140625 137.96875 L 619.085938 137.929688 L 619.039062 137.902344 L 618.984375 137.878906 L 618.929688 137.851562 L 618.878906 137.824219 L 618.828125 137.800781 L 618.773438 137.785156 L 618.71875 137.761719 L 618.65625 137.746094 L 618.605469 137.730469 L 618.496094 137.699219 L 618.433594 137.675781 L 618.375 137.660156 L 618.320312 137.644531 L 618.261719 137.621094 L 618.203125 137.601562 L 618.140625 137.578125 L 618.023438 137.523438 L 617.960938 137.496094 L 617.902344 137.457031 L 617.84375 137.425781 L 617.777344 137.382812 L 617.71875 137.339844 L 617.652344 137.289062 L 617.585938 137.242188 L 617.527344 137.183594 L 617.460938 137.121094 L 617.398438 137.050781 L 617.351562 135.257812 L 617.277344 133.296875 L 617.164062 131.179688 L 617.011719 128.914062 L 616.816406 126.511719 L 616.566406 123.992188 L 616.265625 121.355469 L 615.902344 118.617188 L 615.472656 115.789062 L 614.972656 112.882812 L 614.398438 109.90625 L 613.738281 106.875 L 612.996094 103.792969 L 612.164062 100.675781 L 611.234375 97.539062 L 610.199219 94.382812 L 609.066406 91.234375 L 607.816406 88.089844 L 606.449219 84.964844 L 604.96875 81.875 L 603.351562 78.824219 L 601.609375 75.828125 L 599.726562 72.898438 L 597.699219 70.042969 L 595.53125 67.277344 L 593.210938 64.601562 L 590.734375 62.042969 L 588.089844 59.605469 L 585.28125 57.296875 L 582.300781 55.128906 L 579.140625 53.117188 L 575.800781 51.265625 L 572.273438 49.597656 L 568.550781 48.109375 L 564.632812 46.824219 L 560.511719 45.746094 L 556.1875 44.886719 L 551.644531 44.265625 L 546.886719 43.878906 L 541.902344 43.746094 L 541.195312 43.746094 L 536.082031 43.882812 L 531.203125 44.273438 L 526.554688 44.914062 L 522.132812 45.796875 L 517.925781 46.902344 L 513.929688 48.21875 L 510.148438 49.738281 L 506.558594 51.449219 L 503.171875 53.339844 L 499.976562 55.394531 L 496.972656 57.605469 L 494.140625 59.964844 L 491.484375 62.453125 L 489 65.058594 L 486.679688 67.777344 L 484.515625 70.589844 L 482.503906 73.492188 L 480.640625 76.460938 L 478.917969 79.5 L 477.328125 82.585938 L 475.871094 85.714844 L 474.542969 88.863281 L 473.328125 92.039062 L 472.230469 95.210938 L 471.242188 98.371094 L 470.355469 101.523438 L 469.566406 104.636719 L 468.871094 107.710938 L 468.265625 110.730469 L 467.730469 113.6875 L 467.28125 116.558594 L 466.894531 119.347656 L 466.574219 122.035156 L 466.3125 124.609375 L 466.105469 127.0625 L 465.949219 129.375 L 465.828125 131.542969 L 465.746094 133.550781 L 465.699219 135.394531 L 465.675781 137.050781 L 465.648438 137.089844 L 465.621094 137.121094 L 465.601562 137.160156 L 465.574219 137.199219 L 465.546875 137.230469 L 465.523438 137.269531 L 465.46875 137.339844 L 465.449219 137.378906 L 465.394531 137.449219 L 465.371094 137.484375 L 465.34375 137.523438 L 465.324219 137.5625 L 465.296875 137.601562 L 465.273438 137.632812 L 465.246094 137.671875 L 465.226562 137.707031 L 465.199219 137.746094 L 465.175781 137.785156 L 465.15625 137.824219 L 465.128906 137.859375 L 465.105469 137.898438 L 465.085938 137.9375 L 465.058594 137.96875 L 465.035156 138.007812 L 465.015625 138.046875 L 464.992188 138.082031 L 464.964844 138.121094 L 464.941406 138.160156 L 464.921875 138.199219 L 464.898438 138.234375 L 464.878906 138.273438 L 464.855469 138.3125 L 464.835938 138.355469 L 464.8125 138.394531 L 464.789062 138.429688 L 464.769531 138.46875 L 464.746094 138.507812 L 464.726562 138.546875 L 452.769531 138.546875 L 452.6875 138.550781 L 452.523438 138.550781 L 452.441406 138.554688 L 452.285156 138.554688 L 452.203125 138.5625 L 452.121094 138.5625 L 452.039062 138.566406 L 451.957031 138.566406 L 451.878906 138.574219 L 451.796875 138.574219 L 451.632812 138.582031 L 451.550781 138.589844 L 451.476562 138.589844 L 451.3125 138.597656 L 451.230469 138.605469 L 451.148438 138.609375 L 451.066406 138.617188 L 450.902344 138.625 L 450.824219 138.632812 L 450.746094 138.636719 L 450.664062 138.644531 L 450.582031 138.648438 L 450.503906 138.660156 L 450.421875 138.664062 L 450.339844 138.671875 L 450.261719 138.675781 L 450.179688 138.6875 L 450.101562 138.691406 L 450.019531 138.703125 L 449.9375 138.707031 L 449.859375 138.71875 L 449.777344 138.722656 L 449.699219 138.734375 L 449.636719 137.101562 L 449.59375 135.214844 L 449.574219 133.089844 L 449.589844 130.75 L 449.636719 128.203125 L 449.742188 125.464844 L 449.902344 122.550781 L 450.128906 119.476562 L 450.425781 116.261719 L 450.804688 112.914062 L 451.277344 109.460938 L 451.851562 105.894531 L 452.53125 102.257812 L 453.324219 98.546875 L 454.234375 94.78125 L 455.285156 90.976562 L 456.476562 87.152344 L 457.8125 83.316406 L 459.300781 79.492188 L 460.964844 75.683594 L 462.796875 71.921875 L 464.808594 68.210938 L 467.007812 64.558594 L 469.410156 61 L 472.019531 57.535156 L 474.839844 54.183594 L 477.882812 50.960938 L 481.160156 47.886719 L 484.679688 44.964844 L 488.4375 42.222656 L 492.460938 39.667969 L 496.742188 37.316406 L 501.296875 35.1875 L 506.136719 33.289062 L 511.265625 31.644531 L 516.691406 30.265625 L 522.417969 29.160156 L 528.460938 28.355469 L 534.828125 27.863281 L 541.523438 27.695312 L 548.21875 27.863281 Z M 554.582031 28.355469 " clip-rule="nonzero"/></clipPath><linearGradient x1="242.62" gradientTransform="matrix(0.543508, 0, 0, 0.543253, 410.353183, -8.98593)" y1="67.519983" x2="242.62" gradientUnits="userSpaceOnUse" y2="419.719962" id="3d3e9b4f29"><stop stop-opacity="1" stop-color="rgb(17.298889%, 92.498779%, 100%)" offset="0"/><stop stop-opacity="1" stop-color="rgb(17.611694%, 92.3172%, 100%)" offset="0.00390625"/><stop stop-opacity="1" stop-color="rgb(17.926025%, 92.13562%, 100%)" offset="0.0078125"/><stop stop-opacity="1" stop-color="rgb(18.238831%, 91.952515%, 100%)" offset="0.0117188"/><stop stop-opacity="1" stop-color="rgb(18.553162%, 91.770935%, 100%)" offset="0.015625"/><stop stop-opacity="1" stop-color="rgb(18.867493%, 91.589355%, 100%)" offset="0.0195312"/><stop stop-opacity="1" stop-color="rgb(19.181824%, 91.407776%, 100%)" offset="0.0234375"/><stop stop-opacity="1" stop-color="rgb(19.494629%, 91.22467%, 100%)" offset="0.0273438"/><stop stop-opacity="1" stop-color="rgb(19.80896%, 91.043091%, 100%)" offset="0.03125"/><stop stop-opacity="1" stop-color="rgb(20.121765%, 90.859985%, 100%)" offset="0.0351563"/><stop stop-opacity="1" stop-color="rgb(20.436096%, 90.678406%, 100%)" offset="0.0390625"/><stop stop-opacity="1" stop-color="rgb(20.748901%, 90.496826%, 100%)" offset="0.0429688"/><stop stop-opacity="1" stop-color="rgb(21.063232%, 90.315247%, 100%)" offset="0.046875"/><stop stop-opacity="1" stop-color="rgb(21.376038%, 90.132141%, 100%)" offset="0.0507812"/><stop stop-opacity="1" stop-color="rgb(21.690369%, 89.950562%, 100%)" offset="0.0546875"/><stop stop-opacity="1" stop-color="rgb(22.003174%, 89.768982%, 100%)" offset="0.0585937"/><stop stop-opacity="1" stop-color="rgb(22.317505%, 89.587402%, 100%)" offset="0.0625"/><stop stop-opacity="1" stop-color="rgb(22.63031%, 89.404297%, 100%)" offset="0.0664063"/><stop stop-opacity="1" stop-color="rgb(22.944641%, 89.222717%, 100%)" offset="0.0703125"/><stop stop-opacity="1" stop-color="rgb(23.258972%, 89.039612%, 100%)" offset="0.0742188"/><stop stop-opacity="1" stop-color="rgb(23.573303%, 88.858032%, 100%)" offset="0.078125"/><stop stop-opacity="1" stop-color="rgb(23.886108%, 88.676453%, 100%)" offset="0.0820313"/><stop stop-opacity="1" stop-color="rgb(24.200439%, 88.494873%, 100%)" offset="0.0859375"/><stop stop-opacity="1" stop-color="rgb(24.513245%, 88.311768%, 100%)" offset="0.0898438"/><stop stop-opacity="1" stop-color="rgb(24.827576%, 88.130188%, 100%)" offset="0.09375"/><stop stop-opacity="1" stop-color="rgb(25.140381%, 87.948608%, 100%)" offset="0.0976563"/><stop stop-opacity="1" stop-color="rgb(25.454712%, 87.767029%, 100%)" offset="0.101563"/><stop stop-opacity="1" stop-color="rgb(25.767517%, 87.583923%, 100%)" offset="0.105469"/><stop stop-opacity="1" stop-color="rgb(26.081848%, 87.402344%, 100%)" offset="0.109375"/><stop stop-opacity="1" stop-color="rgb(26.394653%, 87.219238%, 100%)" offset="0.113281"/><stop stop-opacity="1" stop-color="rgb(26.708984%, 87.037659%, 100%)" offset="0.117188"/><stop stop-opacity="1" stop-color="rgb(27.02179%, 86.856079%, 100%)" offset="0.121094"/><stop stop-opacity="1" stop-color="rgb(27.336121%, 86.6745%, 100%)" offset="0.125"/><stop stop-opacity="1" stop-color="rgb(27.650452%, 86.491394%, 100%)" offset="0.128906"/><stop stop-opacity="1" stop-color="rgb(27.964783%, 86.309814%, 100%)" offset="0.132813"/><stop stop-opacity="1" stop-color="rgb(28.277588%, 86.128235%, 100%)" offset="0.136719"/><stop stop-opacity="1" stop-color="rgb(28.591919%, 85.946655%, 100%)" offset="0.140625"/><stop stop-opacity="1" stop-color="rgb(28.904724%, 85.76355%, 100%)" offset="0.144531"/><stop stop-opacity="1" stop-color="rgb(29.219055%, 85.58197%, 100%)" offset="0.148438"/><stop stop-opacity="1" stop-color="rgb(29.53186%, 85.398865%, 100%)" offset="0.152344"/><stop stop-opacity="1" stop-color="rgb(29.846191%, 85.217285%, 100%)" offset="0.15625"/><stop stop-opacity="1" stop-color="rgb(30.158997%, 85.035706%, 100%)" offset="0.160156"/><stop stop-opacity="1" stop-color="rgb(30.473328%, 84.854126%, 100%)" offset="0.164062"/><stop stop-opacity="1" stop-color="rgb(30.786133%, 84.671021%, 100%)" offset="0.167969"/><stop stop-opacity="1" stop-color="rgb(31.100464%, 84.489441%, 100%)" offset="0.171875"/><stop stop-opacity="1" stop-color="rgb(31.413269%, 84.307861%, 100%)" offset="0.175781"/><stop stop-opacity="1" stop-color="rgb(31.7276%, 84.126282%, 100%)" offset="0.179688"/><stop stop-opacity="1" stop-color="rgb(32.040405%, 83.943176%, 100%)" offset="0.183594"/><stop stop-opacity="1" stop-color="rgb(32.354736%, 83.761597%, 100%)" offset="0.1875"/><stop stop-opacity="1" stop-color="rgb(32.669067%, 83.580017%, 100%)" offset="0.191406"/><stop stop-opacity="1" stop-color="rgb(32.983398%, 83.398438%, 100%)" offset="0.195313"/><stop stop-opacity="1" stop-color="rgb(33.296204%, 83.215332%, 100%)" offset="0.199219"/><stop stop-opacity="1" stop-color="rgb(33.610535%, 83.033752%, 100%)" offset="0.203125"/><stop stop-opacity="1" stop-color="rgb(33.92334%, 82.850647%, 100%)" offset="0.207031"/><stop stop-opacity="1" stop-color="rgb(34.237671%, 82.669067%, 100%)" offset="0.210938"/><stop stop-opacity="1" stop-color="rgb(34.550476%, 82.487488%, 100%)" offset="0.214844"/><stop stop-opacity="1" stop-color="rgb(34.864807%, 82.305908%, 100%)" offset="0.21875"/><stop stop-opacity="1" stop-color="rgb(35.177612%, 82.122803%, 100%)" offset="0.222656"/><stop stop-opacity="1" stop-color="rgb(35.491943%, 81.941223%, 100%)" offset="0.226563"/><stop stop-opacity="1" stop-color="rgb(35.804749%, 81.759644%, 100%)" offset="0.230469"/><stop stop-opacity="1" stop-color="rgb(36.11908%, 81.578064%, 100%)" offset="0.234375"/><stop stop-opacity="1" stop-color="rgb(36.431885%, 81.394958%, 100%)" offset="0.238281"/><stop stop-opacity="1" stop-color="rgb(36.746216%, 81.213379%, 100%)" offset="0.242188"/><stop stop-opacity="1" stop-color="rgb(37.060547%, 81.030273%, 100%)" offset="0.246094"/><stop stop-opacity="1" stop-color="rgb(37.374878%, 80.848694%, 100%)" offset="0.25"/><stop stop-opacity="1" stop-color="rgb(37.687683%, 80.667114%, 100%)" offset="0.253906"/><stop stop-opacity="1" stop-color="rgb(38.002014%, 80.485535%, 100%)" offset="0.257812"/><stop stop-opacity="1" stop-color="rgb(38.314819%, 80.302429%, 100%)" offset="0.261719"/><stop stop-opacity="1" stop-color="rgb(38.62915%, 80.12085%, 100%)" offset="0.265625"/><stop stop-opacity="1" stop-color="rgb(38.941956%, 79.93927%, 100%)" offset="0.269531"/><stop stop-opacity="1" stop-color="rgb(39.256287%, 79.75769%, 100%)" offset="0.273438"/><stop stop-opacity="1" stop-color="rgb(39.569092%, 79.574585%, 100%)" offset="0.277344"/><stop stop-opacity="1" stop-color="rgb(39.883423%, 79.393005%, 100%)" offset="0.28125"/><stop stop-opacity="1" stop-color="rgb(40.196228%, 79.2099%, 100%)" offset="0.285156"/><stop stop-opacity="1" stop-color="rgb(40.510559%, 79.02832%, 100%)" offset="0.289062"/><stop stop-opacity="1" stop-color="rgb(40.823364%, 78.846741%, 100%)" offset="0.292969"/><stop stop-opacity="1" stop-color="rgb(41.137695%, 78.665161%, 100%)" offset="0.296875"/><stop stop-opacity="1" stop-color="rgb(41.452026%, 78.482056%, 100%)" offset="0.300781"/><stop stop-opacity="1" stop-color="rgb(41.766357%, 78.300476%, 100%)" offset="0.304688"/><stop stop-opacity="1" stop-color="rgb(42.079163%, 78.118896%, 100%)" offset="0.308594"/><stop stop-opacity="1" stop-color="rgb(42.393494%, 77.937317%, 100%)" offset="0.3125"/><stop stop-opacity="1" stop-color="rgb(42.706299%, 77.754211%, 100%)" offset="0.316406"/><stop stop-opacity="1" stop-color="rgb(43.02063%, 77.572632%, 100%)" offset="0.320312"/><stop stop-opacity="1" stop-color="rgb(43.333435%, 77.389526%, 100%)" offset="0.324219"/><stop stop-opacity="1" stop-color="rgb(43.647766%, 77.207947%, 100%)" offset="0.328125"/><stop stop-opacity="1" stop-color="rgb(43.960571%, 77.026367%, 100%)" offset="0.332031"/><stop stop-opacity="1" stop-color="rgb(44.274902%, 76.844788%, 100%)" offset="0.335937"/><stop stop-opacity="1" stop-color="rgb(44.587708%, 76.661682%, 100%)" offset="0.339844"/><stop stop-opacity="1" stop-color="rgb(44.902039%, 76.480103%, 100%)" offset="0.34375"/><stop stop-opacity="1" stop-color="rgb(45.214844%, 76.298523%, 100%)" offset="0.347656"/><stop stop-opacity="1" stop-color="rgb(45.529175%, 76.116943%, 100%)" offset="0.351562"/><stop stop-opacity="1" stop-color="rgb(45.84198%, 75.933838%, 100%)" offset="0.355469"/><stop stop-opacity="1" stop-color="rgb(46.156311%, 75.752258%, 100%)" offset="0.359375"/><stop stop-opacity="1" stop-color="rgb(46.470642%, 75.569153%, 100%)" offset="0.363281"/><stop stop-opacity="1" stop-color="rgb(46.784973%, 75.387573%, 100%)" offset="0.367187"/><stop stop-opacity="1" stop-color="rgb(47.097778%, 75.205994%, 100%)" offset="0.371094"/><stop stop-opacity="1" stop-color="rgb(47.412109%, 75.024414%, 100%)" offset="0.375"/><stop stop-opacity="1" stop-color="rgb(47.724915%, 74.841309%, 100%)" offset="0.378906"/><stop stop-opacity="1" stop-color="rgb(48.039246%, 74.659729%, 100%)" offset="0.382813"/><stop stop-opacity="1" stop-color="rgb(48.352051%, 74.478149%, 100%)" offset="0.386719"/><stop stop-opacity="1" stop-color="rgb(48.666382%, 74.29657%, 100%)" offset="0.390625"/><stop stop-opacity="1" stop-color="rgb(48.979187%, 74.113464%, 100%)" offset="0.394531"/><stop stop-opacity="1" stop-color="rgb(49.293518%, 73.931885%, 100%)" offset="0.398438"/><stop stop-opacity="1" stop-color="rgb(49.606323%, 73.750305%, 100%)" offset="0.402344"/><stop stop-opacity="1" stop-color="rgb(49.920654%, 73.568726%, 100%)" offset="0.40625"/><stop stop-opacity="1" stop-color="rgb(50.233459%, 73.38562%, 100%)" offset="0.410156"/><stop stop-opacity="1" stop-color="rgb(50.547791%, 73.204041%, 100%)" offset="0.414063"/><stop stop-opacity="1" stop-color="rgb(50.862122%, 73.020935%, 100%)" offset="0.417969"/><stop stop-opacity="1" stop-color="rgb(51.176453%, 72.839355%, 100%)" offset="0.421875"/><stop stop-opacity="1" stop-color="rgb(51.489258%, 72.657776%, 100%)" offset="0.425781"/><stop stop-opacity="1" stop-color="rgb(51.803589%, 72.476196%, 100%)" offset="0.429688"/><stop stop-opacity="1" stop-color="rgb(52.116394%, 72.293091%, 100%)" offset="0.433594"/><stop stop-opacity="1" stop-color="rgb(52.430725%, 72.111511%, 100%)" offset="0.4375"/><stop stop-opacity="1" stop-color="rgb(52.74353%, 71.929932%, 100%)" offset="0.441406"/><stop stop-opacity="1" stop-color="rgb(53.057861%, 71.748352%, 100%)" offset="0.445312"/><stop stop-opacity="1" stop-color="rgb(53.370667%, 71.565247%, 100%)" offset="0.449219"/><stop stop-opacity="1" stop-color="rgb(53.684998%, 71.383667%, 100%)" offset="0.453125"/><stop stop-opacity="1" stop-color="rgb(53.997803%, 71.200562%, 100%)" offset="0.457031"/><stop stop-opacity="1" stop-color="rgb(54.312134%, 71.018982%, 100%)" offset="0.460938"/><stop stop-opacity="1" stop-color="rgb(54.624939%, 70.837402%, 100%)" offset="0.464844"/><stop stop-opacity="1" stop-color="rgb(54.93927%, 70.655823%, 100%)" offset="0.46875"/><stop stop-opacity="1" stop-color="rgb(55.253601%, 70.472717%, 100%)" offset="0.472656"/><stop stop-opacity="1" stop-color="rgb(55.567932%, 70.291138%, 100%)" offset="0.476562"/><stop stop-opacity="1" stop-color="rgb(55.880737%, 70.109558%, 100%)" offset="0.480469"/><stop stop-opacity="1" stop-color="rgb(56.195068%, 69.927979%, 100%)" offset="0.484375"/><stop stop-opacity="1" stop-color="rgb(56.507874%, 69.744873%, 100%)" offset="0.488281"/><stop stop-opacity="1" stop-color="rgb(56.822205%, 69.563293%, 100%)" offset="0.492188"/><stop stop-opacity="1" stop-color="rgb(57.13501%, 69.380188%, 100%)" offset="0.496094"/><stop stop-opacity="1" stop-color="rgb(57.449341%, 69.198608%, 100%)" offset="0.5"/><stop stop-opacity="1" stop-color="rgb(57.762146%, 69.017029%, 100%)" offset="0.503906"/><stop stop-opacity="1" stop-color="rgb(58.076477%, 68.835449%, 100%)" offset="0.507813"/><stop stop-opacity="1" stop-color="rgb(58.389282%, 68.652344%, 100%)" offset="0.511719"/><stop stop-opacity="1" stop-color="rgb(58.703613%, 68.470764%, 100%)" offset="0.515625"/><stop stop-opacity="1" stop-color="rgb(59.016418%, 68.289185%, 100%)" offset="0.519531"/><stop stop-opacity="1" stop-color="rgb(59.33075%, 68.107605%, 100%)" offset="0.523438"/><stop stop-opacity="1" stop-color="rgb(59.643555%, 67.9245%, 100%)" offset="0.527344"/><stop stop-opacity="1" stop-color="rgb(59.957886%, 67.74292%, 100%)" offset="0.53125"/><stop stop-opacity="1" stop-color="rgb(60.272217%, 67.559814%, 100%)" offset="0.535156"/><stop stop-opacity="1" stop-color="rgb(60.586548%, 67.378235%, 100%)" offset="0.539063"/><stop stop-opacity="1" stop-color="rgb(60.899353%, 67.196655%, 100%)" offset="0.542969"/><stop stop-opacity="1" stop-color="rgb(61.213684%, 67.015076%, 100%)" offset="0.546875"/><stop stop-opacity="1" stop-color="rgb(61.526489%, 66.83197%, 100%)" offset="0.550781"/><stop stop-opacity="1" stop-color="rgb(61.84082%, 66.650391%, 100%)" offset="0.554688"/><stop stop-opacity="1" stop-color="rgb(62.153625%, 66.468811%, 100%)" offset="0.558594"/><stop stop-opacity="1" stop-color="rgb(62.467957%, 66.287231%, 100%)" offset="0.5625"/><stop stop-opacity="1" stop-color="rgb(62.780762%, 66.104126%, 100%)" offset="0.566406"/><stop stop-opacity="1" stop-color="rgb(63.095093%, 65.922546%, 100%)" offset="0.570313"/><stop stop-opacity="1" stop-color="rgb(63.407898%, 65.739441%, 100%)" offset="0.574219"/><stop stop-opacity="1" stop-color="rgb(63.722229%, 65.557861%, 100%)" offset="0.578125"/><stop stop-opacity="1" stop-color="rgb(64.035034%, 65.376282%, 100%)" offset="0.582031"/><stop stop-opacity="1" stop-color="rgb(64.349365%, 65.194702%, 100%)" offset="0.585938"/><stop stop-opacity="1" stop-color="rgb(64.663696%, 65.011597%, 100%)" offset="0.589844"/><stop stop-opacity="1" stop-color="rgb(64.978027%, 64.830017%, 100%)" offset="0.59375"/><stop stop-opacity="1" stop-color="rgb(65.290833%, 64.648438%, 100%)" offset="0.597656"/><stop stop-opacity="1" stop-color="rgb(65.605164%, 64.466858%, 100%)" offset="0.601563"/><stop stop-opacity="1" stop-color="rgb(65.917969%, 64.283752%, 100%)" offset="0.605469"/><stop stop-opacity="1" stop-color="rgb(66.2323%, 64.102173%, 100%)" offset="0.609375"/><stop stop-opacity="1" stop-color="rgb(66.545105%, 63.920593%, 100%)" offset="0.613281"/><stop stop-opacity="1" stop-color="rgb(66.859436%, 63.739014%, 100%)" offset="0.617188"/><stop stop-opacity="1" stop-color="rgb(67.172241%, 63.555908%, 100%)" offset="0.621094"/><stop stop-opacity="1" stop-color="rgb(67.486572%, 63.374329%, 100%)" offset="0.625"/><stop stop-opacity="1" stop-color="rgb(67.799377%, 63.191223%, 100%)" offset="0.628906"/><stop stop-opacity="1" stop-color="rgb(68.113708%, 63.009644%, 100%)" offset="0.632812"/><stop stop-opacity="1" stop-color="rgb(68.426514%, 62.828064%, 100%)" offset="0.636719"/><stop stop-opacity="1" stop-color="rgb(68.740845%, 62.646484%, 100%)" offset="0.640625"/><stop stop-opacity="1" stop-color="rgb(69.055176%, 62.463379%, 100%)" offset="0.644531"/><stop stop-opacity="1" stop-color="rgb(69.369507%, 62.281799%, 100%)" offset="0.648438"/><stop stop-opacity="1" stop-color="rgb(69.682312%, 62.10022%, 100%)" offset="0.652344"/><stop stop-opacity="1" stop-color="rgb(69.996643%, 61.91864%, 100%)" offset="0.65625"/><stop stop-opacity="1" stop-color="rgb(70.309448%, 61.735535%, 100%)" offset="0.660156"/><stop stop-opacity="1" stop-color="rgb(70.623779%, 61.553955%, 100%)" offset="0.664062"/><stop stop-opacity="1" stop-color="rgb(70.936584%, 61.37085%, 100%)" offset="0.667969"/><stop stop-opacity="1" stop-color="rgb(71.250916%, 61.18927%, 100%)" offset="0.671875"/><stop stop-opacity="1" stop-color="rgb(71.563721%, 61.00769%, 100%)" offset="0.675781"/><stop stop-opacity="1" stop-color="rgb(71.878052%, 60.826111%, 100%)" offset="0.679688"/><stop stop-opacity="1" stop-color="rgb(72.190857%, 60.643005%, 100%)" offset="0.683594"/><stop stop-opacity="1" stop-color="rgb(72.505188%, 60.461426%, 100%)" offset="0.6875"/><stop stop-opacity="1" stop-color="rgb(72.817993%, 60.279846%, 100%)" offset="0.691406"/><stop stop-opacity="1" stop-color="rgb(73.132324%, 60.098267%, 100%)" offset="0.695312"/><stop stop-opacity="1" stop-color="rgb(73.445129%, 59.915161%, 100%)" offset="0.699219"/><stop stop-opacity="1" stop-color="rgb(73.75946%, 59.733582%, 100%)" offset="0.703125"/><stop stop-opacity="1" stop-color="rgb(74.073792%, 59.550476%, 100%)" offset="0.707031"/><stop stop-opacity="1" stop-color="rgb(74.388123%, 59.368896%, 100%)" offset="0.710938"/><stop stop-opacity="1" stop-color="rgb(74.700928%, 59.187317%, 100%)" offset="0.714844"/><stop stop-opacity="1" stop-color="rgb(75.015259%, 59.005737%, 100%)" offset="0.71875"/><stop stop-opacity="1" stop-color="rgb(75.328064%, 58.822632%, 100%)" offset="0.722656"/><stop stop-opacity="1" stop-color="rgb(75.642395%, 58.641052%, 100%)" offset="0.726562"/><stop stop-opacity="1" stop-color="rgb(75.9552%, 58.459473%, 100%)" offset="0.730469"/><stop stop-opacity="1" stop-color="rgb(76.269531%, 58.277893%, 100%)" offset="0.734375"/><stop stop-opacity="1" stop-color="rgb(76.582336%, 58.094788%, 100%)" offset="0.738281"/><stop stop-opacity="1" stop-color="rgb(76.896667%, 57.913208%, 100%)" offset="0.742188"/><stop stop-opacity="1" stop-color="rgb(77.209473%, 57.730103%, 100%)" offset="0.746094"/><stop stop-opacity="1" stop-color="rgb(77.523804%, 57.548523%, 100%)" offset="0.75"/><stop stop-opacity="1" stop-color="rgb(77.836609%, 57.366943%, 100%)" offset="0.753906"/><stop stop-opacity="1" stop-color="rgb(78.15094%, 57.185364%, 100%)" offset="0.757812"/><stop stop-opacity="1" stop-color="rgb(78.465271%, 57.002258%, 100%)" offset="0.761719"/><stop stop-opacity="1" stop-color="rgb(78.779602%, 56.820679%, 100%)" offset="0.765625"/><stop stop-opacity="1" stop-color="rgb(79.092407%, 56.639099%, 100%)" offset="0.769531"/><stop stop-opacity="1" stop-color="rgb(79.406738%, 56.45752%, 100%)" offset="0.773438"/><stop stop-opacity="1" stop-color="rgb(79.719543%, 56.274414%, 100%)" offset="0.777344"/><stop stop-opacity="1" stop-color="rgb(80.033875%, 56.092834%, 100%)" offset="0.78125"/><stop stop-opacity="1" stop-color="rgb(80.34668%, 55.911255%, 100%)" offset="0.785156"/><stop stop-opacity="1" stop-color="rgb(80.661011%, 55.729675%, 100%)" offset="0.789062"/><stop stop-opacity="1" stop-color="rgb(80.973816%, 55.54657%, 100%)" offset="0.792969"/><stop stop-opacity="1" stop-color="rgb(81.288147%, 55.36499%, 100%)" offset="0.796875"/><stop stop-opacity="1" stop-color="rgb(81.600952%, 55.181885%, 100%)" offset="0.800781"/><stop stop-opacity="1" stop-color="rgb(81.915283%, 55.000305%, 100%)" offset="0.804688"/><stop stop-opacity="1" stop-color="rgb(82.228088%, 54.818726%, 100%)" offset="0.808594"/><stop stop-opacity="1" stop-color="rgb(82.542419%, 54.637146%, 100%)" offset="0.8125"/><stop stop-opacity="1" stop-color="rgb(82.85675%, 54.454041%, 100%)" offset="0.816406"/><stop stop-opacity="1" stop-color="rgb(83.171082%, 54.272461%, 100%)" offset="0.820312"/><stop stop-opacity="1" stop-color="rgb(83.483887%, 54.090881%, 100%)" offset="0.824219"/><stop stop-opacity="1" stop-color="rgb(83.798218%, 53.909302%, 100%)" offset="0.828125"/><stop stop-opacity="1" stop-color="rgb(84.111023%, 53.726196%, 100%)" offset="0.832031"/><stop stop-opacity="1" stop-color="rgb(84.425354%, 53.544617%, 100%)" offset="0.835938"/><stop stop-opacity="1" stop-color="rgb(84.738159%, 53.361511%, 100%)" offset="0.839844"/><stop stop-opacity="1" stop-color="rgb(85.05249%, 53.179932%, 100%)" offset="0.84375"/><stop stop-opacity="1" stop-color="rgb(85.365295%, 52.998352%, 100%)" offset="0.847656"/><stop stop-opacity="1" stop-color="rgb(85.679626%, 52.816772%, 100%)" offset="0.851562"/><stop stop-opacity="1" stop-color="rgb(85.992432%, 52.633667%, 100%)" offset="0.855469"/><stop stop-opacity="1" stop-color="rgb(86.306763%, 52.452087%, 100%)" offset="0.859375"/><stop stop-opacity="1" stop-color="rgb(86.619568%, 52.270508%, 100%)" offset="0.863281"/><stop stop-opacity="1" stop-color="rgb(86.933899%, 52.088928%, 100%)" offset="0.867188"/><stop stop-opacity="1" stop-color="rgb(87.246704%, 51.905823%, 100%)" offset="0.871094"/><stop stop-opacity="1" stop-color="rgb(87.561035%, 51.724243%, 100%)" offset="0.875"/><stop stop-opacity="1" stop-color="rgb(87.875366%, 51.541138%, 100%)" offset="0.878906"/><stop stop-opacity="1" stop-color="rgb(88.189697%, 51.359558%, 100%)" offset="0.882812"/><stop stop-opacity="1" stop-color="rgb(88.502502%, 51.177979%, 100%)" offset="0.886719"/><stop stop-opacity="1" stop-color="rgb(88.816833%, 50.996399%, 100%)" offset="0.890625"/><stop stop-opacity="1" stop-color="rgb(89.129639%, 50.813293%, 100%)" offset="0.894531"/><stop stop-opacity="1" stop-color="rgb(89.44397%, 50.631714%, 100%)" offset="0.898437"/><stop stop-opacity="1" stop-color="rgb(89.756775%, 50.450134%, 100%)" offset="0.902344"/><stop stop-opacity="1" stop-color="rgb(90.071106%, 50.268555%, 100%)" offset="0.90625"/><stop stop-opacity="1" stop-color="rgb(90.383911%, 50.085449%, 100%)" offset="0.910156"/><stop stop-opacity="1" stop-color="rgb(90.698242%, 49.90387%, 100%)" offset="0.914062"/><stop stop-opacity="1" stop-color="rgb(91.011047%, 49.720764%, 100%)" offset="0.917969"/><stop stop-opacity="1" stop-color="rgb(91.325378%, 49.539185%, 100%)" offset="0.921875"/><stop stop-opacity="1" stop-color="rgb(91.638184%, 49.357605%, 100%)" offset="0.925781"/><stop stop-opacity="1" stop-color="rgb(91.952515%, 49.176025%, 100%)" offset="0.929687"/><stop stop-opacity="1" stop-color="rgb(92.266846%, 48.99292%, 100%)" offset="0.933594"/><stop stop-opacity="1" stop-color="rgb(92.581177%, 48.81134%, 100%)" offset="0.9375"/><stop stop-opacity="1" stop-color="rgb(92.893982%, 48.629761%, 100%)" offset="0.941406"/><stop stop-opacity="1" stop-color="rgb(93.208313%, 48.448181%, 100%)" offset="0.945312"/><stop stop-opacity="1" stop-color="rgb(93.521118%, 48.265076%, 100%)" offset="0.949219"/><stop stop-opacity="1" stop-color="rgb(93.835449%, 48.083496%, 100%)" offset="0.953125"/><stop stop-opacity="1" stop-color="rgb(94.148254%, 47.900391%, 100%)" offset="0.957031"/><stop stop-opacity="1" stop-color="rgb(94.462585%, 47.718811%, 100%)" offset="0.960937"/><stop stop-opacity="1" stop-color="rgb(94.775391%, 47.537231%, 100%)" offset="0.964844"/><stop stop-opacity="1" stop-color="rgb(95.089722%, 47.355652%, 100%)" offset="0.96875"/><stop stop-opacity="1" stop-color="rgb(95.402527%, 47.172546%, 100%)" offset="0.972656"/><stop stop-opacity="1" stop-color="rgb(95.716858%, 46.990967%, 100%)" offset="0.976562"/><stop stop-opacity="1" stop-color="rgb(96.029663%, 46.809387%, 100%)" offset="0.980469"/><stop stop-opacity="1" stop-color="rgb(96.343994%, 46.627808%, 100%)" offset="0.984375"/><stop stop-opacity="1" stop-color="rgb(96.656799%, 46.444702%, 100%)" offset="0.988281"/><stop stop-opacity="1" stop-color="rgb(96.97113%, 46.263123%, 100%)" offset="0.992187"/><stop stop-opacity="1" stop-color="rgb(97.285461%, 46.081543%, 100%)" offset="0.996094"/><stop stop-opacity="1" stop-color="rgb(97.599792%, 45.899963%, 100%)" offset="1"/></linearGradient></defs><g fill="#ce8eff" fill-opacity="1"><g transform="translate(14.750463, 224.369257)"><g><path d="M 34.40625 -104.171875 C 42.59375 -117.929688 55.039062 -124.8125 71.75 -124.8125 C 79.9375 -124.8125 87.507812 -122.640625 94.46875 -118.296875 C 101.4375 -113.960938 106.882812 -107.863281 110.8125 -100 C 116.382812 -110.320312 125.066406 -117.691406 136.859375 -122.109375 C 141.609375 -123.910156 146.972656 -124.8125 152.953125 -124.8125 C 158.929688 -124.8125 164.660156 -123.625 170.140625 -121.25 C 175.628906 -118.875 180.503906 -115.476562 184.765625 -111.0625 C 193.941406 -101.226562 198.53125 -88.941406 198.53125 -74.203125 L 198.53125 0 L 180.09375 0 L 180.09375 -73.71875 C 180.09375 -83.863281 177.226562 -92.210938 171.5 -98.765625 C 165.769531 -104.992188 158.484375 -108.109375 149.640625 -108.109375 C 140.296875 -108.109375 132.515625 -105.078125 126.296875 -99.015625 C 119.742188 -92.796875 116.46875 -84.28125 116.46875 -73.46875 L 116.46875 0 L 98.03125 0 L 98.03125 -73.71875 C 98.03125 -83.863281 95.164062 -92.210938 89.4375 -98.765625 C 83.707031 -104.992188 76.414062 -108.109375 67.5625 -108.109375 C 58.226562 -108.109375 50.453125 -105.078125 44.234375 -99.015625 C 37.679688 -92.796875 34.40625 -84.28125 34.40625 -73.46875 L 34.40625 0 L 15.96875 0 L 15.96875 -122.859375 L 34.40625 -122.859375 Z M 34.40625 -104.171875 "/></g></g></g><g fill="#ce8eff" fill-opacity="1"><g transform="translate(228.01752, 224.369257)"><g><path d="M 70.765625 -14.75 C 87.304688 -14.75 99.179688 -21.625 106.390625 -35.375 L 126.53125 -35.375 C 122.28125 -24.238281 115.523438 -15.226562 106.265625 -8.34375 C 97.015625 -1.46875 85.097656 1.96875 70.515625 1.96875 C 52.003906 1.96875 36.9375 -4.175781 25.3125 -16.46875 C 14.007812 -28.425781 8.359375 -43.410156 8.359375 -61.421875 C 8.359375 -79.609375 13.765625 -94.597656 24.578125 -106.390625 C 36.035156 -118.671875 50.9375 -124.8125 69.28125 -124.8125 C 87.632812 -124.8125 102.539062 -118.671875 114 -106.390625 C 124.8125 -94.597656 130.21875 -79.609375 130.21875 -61.421875 L 130.21875 -54.0625 L 27.265625 -54.0625 C 28.578125 -42.75 33.082031 -33.410156 40.78125 -26.046875 C 48.644531 -18.515625 58.640625 -14.75 70.765625 -14.75 Z M 69.28125 -108.109375 C 57.976562 -108.109375 48.476562 -104.585938 40.78125 -97.546875 C 33.570312 -90.828125 29.148438 -82.0625 27.515625 -71.25 L 111.0625 -71.25 C 109.414062 -82.0625 104.992188 -90.828125 97.796875 -97.546875 C 90.085938 -104.585938 80.582031 -108.109375 69.28125 -108.109375 Z M 69.28125 -108.109375 "/></g></g></g><g fill="#ce8eff" fill-opacity="1"><g transform="translate(364.872077, 224.369257)"><g><path d="M 34.40625 0 L 15.96875 0 L 15.96875 -172 L 34.40625 -172 Z M 34.40625 0 "/></g></g></g><g fill="#ce8eff" fill-opacity="1"><g transform="translate(415.254942, 224.369257)"><g/></g></g><g fill="#ce8eff" fill-opacity="1"><g transform="translate(467.588912, 224.369257)"><g/></g></g><g fill="#ce8eff" fill-opacity="1"><g transform="translate(519.922883, 224.369257)"><g/></g></g><g fill="#ce8eff" fill-opacity="1"><g transform="translate(572.256853, 224.369257)"><g/></g></g><g fill="#ce8eff" fill-opacity="1"><g transform="translate(624.590823, 224.369257)"><g/></g></g><g fill="#ce8eff" fill-opacity="1"><g transform="translate(676.935775, 224.369257)"><g><path d="M 111.796875 -19.65625 C 101.960938 -5.238281 87.300781 1.96875 67.8125 1.96875 C 50.125 1.96875 35.710938 -4.175781 24.578125 -16.46875 C 13.765625 -28.582031 8.359375 -43.566406 8.359375 -61.421875 C 8.359375 -79.273438 13.765625 -94.265625 24.578125 -106.390625 C 35.710938 -118.671875 50.535156 -124.8125 69.046875 -124.8125 C 87.554688 -124.8125 101.804688 -117.523438 111.796875 -102.953125 L 111.796875 -172 L 130.21875 -172 L 130.21875 0 L 111.796875 0 Z M 70.265625 -14.75 C 83.535156 -14.75 94.019531 -19.332031 101.71875 -28.5 C 109.09375 -37.1875 112.78125 -48.160156 112.78125 -61.421875 C 112.78125 -74.691406 109.09375 -85.664062 101.71875 -94.34375 C 94.019531 -103.519531 83.535156 -108.109375 70.265625 -108.109375 C 57.160156 -108.109375 46.515625 -103.519531 38.328125 -94.34375 C 30.628906 -85.664062 26.78125 -74.691406 26.78125 -61.421875 C 26.78125 -48.160156 30.628906 -37.1875 38.328125 -28.5 C 46.515625 -19.332031 57.160156 -14.75 70.265625 -14.75 Z M 70.265625 -14.75 "/></g></g></g><g fill="#ce8eff" fill-opacity="1"><g transform="translate(823.126901, 224.369257)"><g><path d="M 48.65625 48.65625 L 28.75 48.65625 L 51.109375 -1.71875 L 0.984375 -122.859375 L 21.375 -122.859375 L 60.9375 -22.109375 L 101.234375 -122.859375 L 121.375 -122.859375 Z M 48.65625 48.65625 "/></g></g></g><g clip-path="url(#8a2858050f)"><g clip-path="url(#ddb4f99f05)"><path fill="url(#3d3e9b4f29)" d="M 427.386719 27.695312 L 427.386719 219.027344 L 657.046875 219.027344 L 657.046875 27.695312 Z M 427.386719 27.695312 " fill-rule="nonzero"/></g></g><g fill="#ce8eff" fill-opacity="1"><g transform="translate(464.562475, 233.448794)"><g><path d="M 77.75 -140.0625 C 98.332031 -140.0625 115.054688 -133.164062 127.921875 -119.375 C 140.054688 -106.144531 146.125 -89.328125 146.125 -68.921875 C 146.125 -48.523438 140.054688 -31.707031 127.921875 -18.46875 C 115.054688 -4.6875 98.332031 2.203125 77.75 2.203125 C 57.164062 2.203125 40.441406 -4.6875 27.578125 -18.46875 C 15.441406 -31.707031 9.375 -48.523438 9.375 -68.921875 C 9.375 -89.328125 15.441406 -106.144531 27.578125 -119.375 C 40.441406 -133.164062 57.164062 -140.0625 77.75 -140.0625 Z M 77.75 -16.546875 C 92.632812 -16.546875 104.394531 -21.691406 113.03125 -31.984375 C 121.300781 -41.722656 125.4375 -54.035156 125.4375 -68.921875 C 125.4375 -83.804688 121.300781 -96.125 113.03125 -105.875 C 104.394531 -116.164062 92.632812 -121.3125 77.75 -121.3125 C 62.863281 -121.3125 51.097656 -116.164062 42.453125 -105.875 C 34.179688 -96.125 30.046875 -83.804688 30.046875 -68.921875 C 30.046875 -54.035156 34.179688 -41.722656 42.453125 -31.984375 C 51.097656 -21.691406 62.863281 -16.546875 77.75 -16.546875 Z M 77.75 -16.546875 "/></g></g></g></svg>